<svg id="ehpz9DsH3fI1" xmlns="http://www.w3.org/2000/svg" xmlns:xlink="http://www.w3.org/1999/xlink" viewBox="0 0 1500 1500" shape-rendering="geometricPrecision" text-rendering="geometricPrecision"><path d="M0,336.134472C341.20428,481.773451,324.664809,458.70984,437.133203,481.773451s254.707832,181.842517,188.549953,304.234593-59.542091,172.010485-264.631514,198.473636q-205.089423,26.463151-423.410422-92.62103Q-341.204281,190.495492,0,336.134472Z" transform="matrix(1.073553 0 0 0.940304-163.888429-38.24923)" fill="#9c6fe4" stroke-width="3"/><path d="" fill="none" stroke="#3f5787" stroke-width="3"/><path d="M970.505628,74.538147Q873.522504,-92.70955,843.825929,-86.828546c-29.696575,5.881004-140.589478,0-137.289859,0q3.299619,0-135.284399,13.198478-125.38554,192.987788,0,267.269178c125.38554,74.28139,178.179452,36.493989,254.0707,63.609136s138.584018-182.710099,145.183257-182.710099Z" fill="#9869e3" stroke-width="3"/><path d="M670.240255,959.150829c0-3.299619,7.695807-77.703151-178.573608-71.687998s-224.450109,28.792944-186.269415,134.380768q38.180695,105.587824,252.289336,167.089064Q670.240255,962.450448,670.240255,959.150829Z" transform="matrix(1.102501 0 0 1.522166 41.460953-452.115049)" fill="#9869e3" stroke-width="3"/><path d="M1270.106241,488.523375q-48.561149,60.701434-44.514386,60.701434c4.046763,0,63.204815,190.197828,274.408145,0s-108.490892-174.010779-104.444129-174.010779q4.046763,0-125.44963,113.309345Z" transform="matrix(1.020746 0.499889-.510459 1.042329 148.500496-680.569637)" fill="#9869e3" stroke-width="3"/><path d="M1500.000001,880.263515q-286.726362-96.588653-796.714455,123.633478t-122.380096,496.103007h919.094551v-619.736485Z" transform="matrix(.936975 0 0 0.935612 103.655772-45.780089)" fill="#9c6fe4" stroke-width="3"/><path d="M1164.537739,-0.000001q-62.831273-38.558145-349.341876,74.538146t178.623119,407.146646q317.687197,191.00707,527.600385-7.539752t-21.419369-474.14504h-335.462259Z" transform="translate(28.630066 0.000002)" fill="#9c6fe4" stroke-width="3"/></svg>
